<svg width="500" height="500" viewBox="0 0 500 500" fill="none" xmlns="http://www.w3.org/2000/svg">
<g id="logo 1">
<g id="BACKGROUND">
<path id="Vector" d="M439.999 0H60C26.8629 0 0 26.8629 0 60V439.999C0 473.136 26.8629 499.999 60 499.999H439.999C473.136 499.999 499.999 473.136 499.999 439.999V60C499.999 26.8629 473.136 0 439.999 0Z" fill="black" fill-opacity="0.02"/>
</g>
<g id="OBJECTS">
<path id="letter" d="M428.823 245.578L428.723 242.894L428.522 237.526C428.428 235.737 428.442 233.948 428.256 232.161L427.705 226.802C427.145 219.644 425.783 212.553 424.49 205.474L421.931 194.956L421.609 193.642C421.492 193.207 421.341 192.779 421.211 192.347L420.391 189.762L418.744 184.595C414.103 170.899 407.83 157.706 399.955 145.515C392.074 133.339 382.674 122.103 371.889 112.413C350.34 92.978 323.954 79.361 296.135 72.438C282.227 68.946 267.959 67.032 253.686 66.717C239.408 66.42 225.145 67.765 211.207 70.506L205.978 71.53L200.817 72.847C197.381 73.736 193.923 74.539 190.571 75.705L185.509 77.331L182.98 78.145L182.348 78.349C181.681 78.581 181.993 78.48 181.767 78.562L181.471 78.679L180.285 79.147L170.794 82.908L160.892 87.638C160.053 88.018 159.271 88.456 158.502 88.908L156.173 90.239L151.522 92.905C145.43 96.638 139.514 100.676 133.975 105.193C122.843 114.15 113.035 124.674 104.785 136.207C96.525 147.745 89.902 160.33 84.76 173.388C79.631 186.46 75.965 200.027 73.729 213.775C71.545 227.534 70.748 241.459 71.282 255.302L71.511 260.491C71.622 262.218 71.802 263.942 71.948 265.667C72.127 267.39 72.225 269.116 72.471 270.831L73.181 275.974L73.538 278.542L74.01 281.095L74.956 286.195C75.29 287.89 75.731 289.568 76.113 291.252C76.53 292.932 76.853 294.627 77.373 296.281L78.813 301.263L79.173 302.507L79.599 303.734L80.457 306.183C81.527 309.468 82.934 312.642 84.264 315.828C87.157 322.113 90.507 328.205 94.683 333.73C95.052 334.216 95.741 334.351 96.265 334.017C96.818 333.667 96.983 332.933 96.632 332.38L96.618 332.359C93.033 326.703 90.223 320.609 87.866 314.363C86.803 311.187 85.667 308.05 84.861 304.797L84.194 302.383L83.857 301.178L83.586 299.951L82.5 295.056C79.762 281.96 78.896 268.533 79.034 255.208C79.461 228.547 85.011 201.999 95.692 177.956C106.377 153.94 122.602 132.609 143.309 117.169C148.443 113.261 153.904 109.808 159.505 106.628L163.782 104.37L165.917 103.239C166.627 102.851 167.339 102.481 168.063 102.19L176.676 98.378L186.249 94.906L187.448 94.473L187.748 94.365C187.723 94.376 188.228 94.187 187.767 94.363L188.353 94.194L190.7 93.518L195.388 92.163C198.49 91.174 201.683 90.544 204.85 89.821L209.601 88.749L214.405 87.961C227.192 85.802 240.179 84.877 253.085 85.472C265.985 86.106 278.788 88.061 291.179 91.442C315.941 98.189 339.079 110.586 357.695 127.895C367.029 136.509 375.148 146.378 381.918 157.085C388.686 167.8 394.057 179.383 398.023 191.463L399.425 196.025L400.13 198.304C400.243 198.685 400.374 199.061 400.474 199.446L400.744 200.612L402.914 209.928C403.978 216.229 405.154 222.516 405.576 228.93L406.029 233.717C406.185 235.312 406.144 236.929 406.213 238.534L406.348 243.356L406.416 245.767C406.439 246.571 406.479 247.374 406.426 248.181L406.078 257.854L405.994 260.272C405.941 261.069 405.844 261.848 405.771 262.637L405.31 267.354C404.966 270.536 404.835 273.536 404.199 276.989L402.609 287.061L402.412 288.319L402.398 288.401C402.408 288.331 402.353 288.637 402.355 288.6L402.232 289.186L401.74 291.53C401.4 293.091 401.105 294.661 400.746 296.214L399.58 300.845C399.381 301.615 399.201 302.392 398.988 303.158L398.304 305.437L396.933 309.996L395.369 314.48C395.103 315.224 394.863 315.98 394.578 316.718L393.697 318.915C393.099 320.376 392.549 321.858 391.918 323.304C389.393 329.083 386.533 334.693 383.348 340.103C380.08 345.458 376.535 350.636 372.635 355.535C368.684 360.392 364.438 365.002 359.906 369.324C350.756 377.875 340.496 385.285 329.353 391.174C307.123 403.041 281.769 409.399 256.466 409.834C243.825 410.012 231.181 408.676 219.167 405.596C207.185 402.516 195.774 397.612 186.469 390.649C181.804 387.194 177.787 383.171 174.559 378.754C172.894 376.568 171.594 374.203 170.359 371.822C170.069 371.22 169.832 370.595 169.56 369.986C169.315 369.367 168.981 368.777 168.803 368.134C168.41 366.861 167.873 365.632 167.61 364.32L167.111 362.38C166.973 361.726 166.888 361.058 166.768 360.4C166.673 359.734 166.496 359.085 166.457 358.408L166.279 356.385L166.181 355.373L166.172 354.457L166.132 352.641C166.074 352.145 166.178 351.141 166.221 350.328L166.385 347.785L167.508 338.539L169.064 328.875C171.364 315.984 174.531 303.123 178.201 290.355C181.856 277.578 186.037 264.888 190.577 252.298C195.12 239.709 200.026 227.215 205.207 214.816C210.379 202.414 215.789 190.089 221.447 177.867C227.095 165.641 232.995 153.52 239.03 141.469C242.06 135.449 245.139 129.455 248.27 123.493C248.298 123.439 248.327 123.386 248.355 123.332L253.169 136.884L258.44 153.399L259.745 157.536L260.958 161.715L263.386 170.073L265.808 178.433L268.08 186.856C269.57 192.48 271.16 198.067 272.57 203.722L276.861 220.661C278.273 226.313 279.597 231.995 280.97 237.66L283.005 246.166L284.962 254.695C286.249 260.386 287.605 266.058 288.839 271.765L292.605 288.867L296.248 306L299.799 323.154L301.571 331.947L301.264 331.572C300.201 330.269 299.139 328.97 298.004 327.72C295.777 325.195 293.576 322.66 291.215 320.253C290.041 319.044 288.924 317.796 287.709 316.626L284.09 313.108C282.908 311.917 281.621 310.821 280.379 309.69C279.115 308.577 277.91 307.413 276.594 306.358L272.715 303.139C271.401 302.092 270.049 301.086 268.719 300.063C267.405 299.022 266.014 298.071 264.641 297.104C263.272 296.135 261.903 295.168 260.475 294.28C257.678 292.428 254.784 290.723 251.868 289.079C250.383 288.296 248.922 287.483 247.427 286.731C245.913 286.01 244.423 285.254 242.899 284.567C239.841 283.21 236.756 281.932 233.6 280.846C230.466 279.711 227.246 278.821 224.029 278C220.789 277.242 217.524 276.623 214.231 276.232C210.935 275.859 207.635 275.632 204.297 275.873C204.046 275.891 203.844 276.094 203.834 276.351C203.823 276.626 204.038 276.859 204.313 276.871L204.337 276.873C207.529 277 210.74 277.58 213.871 278.299C217.008 279.035 220.087 279.985 223.112 281.059C226.117 282.2 229.092 283.391 231.965 284.815C234.857 286.186 237.659 287.737 240.413 289.35C241.786 290.163 243.122 291.041 244.474 291.881C245.809 292.752 247.109 293.682 248.425 294.576C251.01 296.441 253.553 298.353 255.994 300.396C257.242 301.38 258.43 302.441 259.617 303.498C260.806 304.553 262.008 305.586 263.138 306.711C264.281 307.816 265.441 308.899 266.564 310.02L269.865 313.454C270.986 314.573 272 315.808 273.066 316.979C274.111 318.174 275.197 319.325 276.183 320.575L279.203 324.253C280.215 325.47 281.138 326.773 282.107 328.025C284.062 330.519 285.863 333.14 287.681 335.736C288.609 337.019 289.47 338.353 290.329 339.691L292.915 343.683C294.587 346.382 296.19 349.126 297.819 351.841C299.348 354.63 300.903 357.394 302.405 360.187L306.708 368.687L310.749 377.318L310.751 377.322L310.853 377.513C312.718 380.956 316.65 382.964 320.707 382.206C325.74 381.266 329.057 376.425 328.115 371.391L324.871 354.024L321.51 336.721L318.053 319.44L314.502 302.178L310.859 284.932L307.089 267.709C305.857 261.965 304.497 256.242 303.206 250.506L301.245 241.908L299.204 233.323C297.825 227.602 296.497 221.874 295.077 216.16L290.761 199.028C289.345 193.314 287.736 187.63 286.234 181.929L283.941 173.385L281.486 164.865L279.023 156.347L277.793 152.088L276.463 147.843C274.662 142.187 272.908 136.525 271.068 130.874L265.091 113.982C262.88 108.374 260.54 102.78 258.263 97.181L258.261 97.178C257.534 95.336 256.21 93.707 254.376 92.619C249.981 90.012 244.304 91.461 241.697 95.856L241.446 96.278C237.864 102.316 234.5 108.213 231.159 114.233C227.829 120.232 224.556 126.256 221.333 132.307C214.881 144.406 208.712 156.652 202.72 168.995C190.741 193.684 179.679 218.87 169.983 244.719C160.326 270.572 151.842 297.061 146.661 324.783L144.901 335.238L144.212 340.529L143.871 343.174L143.701 344.498L143.616 345.158C143.636 344.888 143.539 345.898 143.543 345.91L143.52 346.228L143.337 348.771C143.284 349.654 143.19 350.343 143.203 351.546L143.202 354.827C143.208 355.37 143.205 355.929 143.224 356.46L143.343 357.989L143.598 361.044C143.669 362.064 143.891 363.077 144.036 364.093C144.208 365.107 144.353 366.124 144.559 367.134L145.29 370.142C145.726 372.162 146.47 374.097 147.104 376.062C147.403 377.054 147.863 377.98 148.244 378.939C148.651 379.886 149.033 380.847 149.472 381.779C151.298 385.461 153.313 389.058 155.726 392.32C160.47 398.908 166.169 404.621 172.411 409.275C184.916 418.636 199.027 424.527 213.309 428.252C227.633 431.943 242.264 433.477 256.798 433.299C285.833 432.822 314.743 425.731 340.443 411.83C353.308 404.955 365.259 396.283 375.923 386.223C381.212 381.143 386.169 375.721 390.767 370.006C395.318 364.252 399.445 358.182 403.222 351.912C406.915 345.596 410.208 339.062 413.095 332.371C413.816 330.697 414.45 328.992 415.13 327.305L416.132 324.766C416.454 323.916 416.732 323.051 417.032 322.196L418.802 317.044L420.349 311.835L421.117 309.228C421.355 308.357 421.558 307.476 421.781 306.601L423.082 301.337C423.486 299.579 423.81 297.808 424.17 296.042L424.697 293.39L424.83 292.728C424.875 292.472 424.82 292.833 424.949 292.07L424.994 291.755L425.182 290.493C426.143 283.725 427.309 277.259 427.811 269.784L428.288 264.349C428.36 263.445 428.458 262.534 428.509 261.636L428.583 258.958L428.858 248.251C428.903 247.369 428.854 246.473 428.823 245.578Z" fill="url(#paint0_linear_10_2)"/>
</g>
</g>
<defs>
<linearGradient id="paint0_linear_10_2" x1="249.999" y1="66.6765" x2="249.999" y2="433.313" gradientUnits="userSpaceOnUse">
<stop stop-color="#FF5900"/>
<stop offset="1" stop-color="#DADADA"/>
</linearGradient>
</defs>
</svg>
